REM DIRINDEX 1\2,1\3,1\4,1\5
REM DIRNAME folder01,folder02,folder03,folder04,folder05
TITLE ""
FILE "P1Q_t_0102-0111.mp3" MP3
  TRACK 01 AUDIO
    TITLE "3:cjc005_1207"
    INDEX 01 00:00:00
  TRACK 02 AUDIO
    TITLE "0:"
    INDEX 01 00:00:70
  TRACK 03 AUDIO
    TITLE "4:cjc005_1208"
    INDEX 01 00:01:22
  TRACK 04 AUDIO
    TITLE "0:"
    INDEX 01 00:02:47
  TRACK 05 AUDIO
    TITLE "5:cjc005_1209"
    INDEX 01 00:02:71
  TRACK 06 AUDIO
    TITLE "0:"
    INDEX 01 00:06:49
  TRACK 07 AUDIO
    TITLE "3:cjc005_1210"
    INDEX 01 00:07:25
  TRACK 08 AUDIO
    TITLE "0:"
    INDEX 01 00:08:46
  TRACK 09 AUDIO
    TITLE "4:cjc005_1211"
    INDEX 01 00:09:04
  TRACK 10 AUDIO
    TITLE "0:"
    INDEX 01 00:10:16
  TRACK 11 AUDIO
    TITLE "5:cjc005_1212"
    INDEX 01 00:10:43
  TRACK 12 AUDIO
    TITLE "0:"
    INDEX 01 00:14:04
  TRACK 13 AUDIO
    TITLE "3:cjc005_1213"
    INDEX 01 00:14:62
  TRACK 14 AUDIO
    TITLE "0:"
    INDEX 01 00:16:06
  TRACK 15 AUDIO
    TITLE "4:cjc005_1214"
    INDEX 01 00:16:32
  TRACK 16 AUDIO
    TITLE "0:"
    INDEX 01 00:17:43
  TRACK 17 AUDIO
    TITLE "5:cjc005_1215"
    INDEX 01 00:17:67
  TRACK 18 AUDIO
    TITLE "0:"
    INDEX 01 00:22:52
  TRACK 19 AUDIO
    TITLE "3:cjc005_1216"
    INDEX 01 00:23:34
  TRACK 20 AUDIO
    TITLE "0:"
    INDEX 01 00:24:49
  TRACK 21 AUDIO
    TITLE "4:cjc005_1217"
    INDEX 01 00:25:01
  TRACK 22 AUDIO
    TITLE "0:"
    INDEX 01 00:26:40
  TRACK 23 AUDIO
    TITLE "5:cjc005_1218"
    INDEX 01 00:26:67
  TRACK 24 AUDIO
    TITLE "0:"
    INDEX 01 00:30:14
  TRACK 25 AUDIO
    TITLE "3:cjc005_1219"
    INDEX 01 00:30:71
  TRACK 26 AUDIO
    TITLE "0:"
    INDEX 01 00:32:03
  TRACK 27 AUDIO
    TITLE "4:cjc005_1220"
    INDEX 01 00:32:31
  TRACK 28 AUDIO
    TITLE "0:"
    INDEX 01 00:33:34
  TRACK 29 AUDIO
    TITLE "5:cjc005_1221"
    INDEX 01 00:33:56
  TRACK 30 AUDIO
    TITLE "0:"
    INDEX 01 00:37:57
  TRACK 31 AUDIO
    TITLE "3:cjc005_1222"
    INDEX 01 00:38:33
  TRACK 32 AUDIO
    TITLE "0:"
    INDEX 01 00:39:49
  TRACK 33 AUDIO
    TITLE "4:cjc005_1223"
    INDEX 01 00:39:74
  TRACK 34 AUDIO
    TITLE "0:"
    INDEX 01 00:41:10
  TRACK 35 AUDIO
    TITLE "5:cjc005_1224"
    INDEX 01 00:41:38
  TRACK 36 AUDIO
    TITLE "0:"
    INDEX 01 00:46:37
  TRACK 37 AUDIO
    TITLE "3:cjc005_1225"
    INDEX 01 00:47:13
  TRACK 38 AUDIO
    TITLE "0:"
    INDEX 01 00:48:08
  TRACK 39 AUDIO
    TITLE "4:cjc005_1226"
    INDEX 01 00:48:38
  TRACK 40 AUDIO
    TITLE "0:"
    INDEX 01 00:49:37
  TRACK 41 AUDIO
    TITLE "5:cjc005_1227"
    INDEX 01 00:49:61
  TRACK 42 AUDIO
    TITLE "0:"
    INDEX 01 00:54:46
  TRACK 43 AUDIO
    TITLE "3:cjc005_1228"
    INDEX 01 00:55:28
  TRACK 44 AUDIO
    TITLE "0:"
    INDEX 01 00:56:31
  TRACK 45 AUDIO
    TITLE "4:cjc005_1229"
    INDEX 01 00:56:59
  TRACK 46 AUDIO
    TITLE "0:"
    INDEX 01 00:57:72
  TRACK 47 AUDIO
    TITLE "5:cjc005_1230"
    INDEX 01 00:58:18
  TRACK 48 AUDIO
    TITLE "0:"
    INDEX 01 01:02:01
  TRACK 49 AUDIO
    TITLE "3:cjc005_1231"
    INDEX 01 01:02:55
  TRACK 50 AUDIO
    TITLE "0:"
    INDEX 01 01:03:63
  TRACK 51 AUDIO
    TITLE "4:cjc005_1232"
    INDEX 01 01:04:17
  TRACK 52 AUDIO
    TITLE "0:"
    INDEX 01 01:05:19
  TRACK 53 AUDIO
    TITLE "5:cjc005_1233"
    INDEX 01 01:05:42
  TRACK 54 AUDIO
    TITLE "0:"
    INDEX 01 01:09:65
  TRACK 55 AUDIO
    TITLE "3:cjc005_1234"
    INDEX 01 01:10:39
  TRACK 56 AUDIO
    TITLE "0:"
    INDEX 01 01:11:52
  TRACK 57 AUDIO
    TITLE "4:cjc005_1235"
    INDEX 01 01:12:09
  TRACK 58 AUDIO
    TITLE "0:"
    INDEX 01 01:13:28
  TRACK 59 AUDIO
    TITLE "5:cjc005_1236"
    INDEX 01 01:13:51
  TRACK 60 AUDIO
    TITLE "0:"
    INDEX 01 01:17:63
